REM DIRINDEX 1\3,1\5,1\6,1\2\7,1\2\8,1\4\9,1\4\10
REM DIRNAME cjc060,folder01,folder02,folder03,folder04,folder05,folder06,folder07,folder08,folder09
TITLE ""
FILE "CD2Track18.mp3" MP3
  TRACK 01 AUDIO
    TITLE "9:cjc060_1440"
    INDEX 01 00:00:00
  TRACK 02 AUDIO
    TITLE "10:cjc060_1441"
    INDEX 01 00:01:28
  TRACK 03 AUDIO
    TITLE "9:cjc060_1442"
    INDEX 01 00:05:28
  TRACK 04 AUDIO
    TITLE "10:cjc060_1443"
    INDEX 01 00:06:35
  TRACK 05 AUDIO
    TITLE "9:cjc060_1444"
    INDEX 01 00:10:74
  TRACK 06 AUDIO
    TITLE "10:cjc060_1445"
    INDEX 01 00:12:22
  TRACK 07 AUDIO
    TITLE "9:cjc060_1446"
    INDEX 01 00:16:32
  TRACK 08 AUDIO
    TITLE "10:cjc060_1447"
    INDEX 01 00:18:03
  TRACK 09 AUDIO
    TITLE "9:cjc060_1448"
    INDEX 01 00:23:03
  TRACK 10 AUDIO
    TITLE "10:cjc060_1449"
    INDEX 01 00:24:29
  TRACK 11 AUDIO
    TITLE "9:cjc060_1450"
    INDEX 01 00:27:49
  TRACK 12 AUDIO
    TITLE "10:cjc060_1451"
    INDEX 01 00:29:03
  TRACK 13 AUDIO
    TITLE "9:cjc060_1452"
    INDEX 01 00:32:70
  TRACK 14 AUDIO
    TITLE "10:cjc060_1453"
    INDEX 01 00:34:10
  TRACK 15 AUDIO
    TITLE "9:cjc060_1454"
    INDEX 01 00:37:42
  TRACK 16 AUDIO
    TITLE "10:cjc060_1455"
    INDEX 01 00:39:17
  TRACK 17 AUDIO
    TITLE "9:cjc060_1456"
    INDEX 01 00:43:44
  TRACK 18 AUDIO
    TITLE "10:cjc060_1457"
    INDEX 01 00:45:10
  TRACK 19 AUDIO
    TITLE "9:cjc060_1458"
    INDEX 01 00:49:25
  TRACK 20 AUDIO
    TITLE "10:cjc060_1459"
    INDEX 01 00:50:68
  TRACK 21 AUDIO
    TITLE "9:cjc060_1460"
    INDEX 01 00:55:38
  TRACK 22 AUDIO
    TITLE "10:cjc060_1461"
    INDEX 01 00:56:53
  TRACK 23 AUDIO
    TITLE "9:cjc060_1462"
    INDEX 01 01:00:68
  TRACK 24 AUDIO
    TITLE "10:cjc060_1463"
    INDEX 01 01:02:24
  TRACK 25 AUDIO
    TITLE "9:cjc060_1464"
    INDEX 01 01:06:53
  TRACK 26 AUDIO
    TITLE "10:cjc060_1465"
    INDEX 01 01:07:70
  TRACK 27 AUDIO
    TITLE "9:cjc060_1466"
    INDEX 01 01:11:17
  TRACK 28 AUDIO
    TITLE "10:cjc060_1467"
    INDEX 01 01:12:38
  TRACK 29 AUDIO
    TITLE "9:cjc060_1468"
    INDEX 01 01:16:54
  TRACK 30 AUDIO
    TITLE "10:cjc060_1469"
    INDEX 01 01:17:73
  TRACK 31 AUDIO
    TITLE "9:cjc060_1470"
    INDEX 01 01:21:61
  TRACK 32 AUDIO
    TITLE "10:cjc060_1471"
    INDEX 01 01:22:68
  TRACK 33 AUDIO
    TITLE "9:cjc060_1472"
    INDEX 01 01:26:07
  TRACK 34 AUDIO
    TITLE "10:cjc060_1473"
    INDEX 01 01:27:28
  TRACK 35 AUDIO
    TITLE "9:cjc060_1474"
    INDEX 01 01:30:48
  TRACK 36 AUDIO
    TITLE "10:cjc060_1475"
    INDEX 01 01:32:08
  TRACK 37 AUDIO
    TITLE "9:cjc060_1476"
    INDEX 01 01:36:07
  TRACK 38 AUDIO
    TITLE "10:cjc060_1477"
    INDEX 01 01:37:52
  TRACK 39 AUDIO
    TITLE "9:cjc060_1478"
    INDEX 01 01:41:32
  TRACK 40 AUDIO
    TITLE "10:cjc060_1479"
    INDEX 01 01:42:55
  TRACK 41 AUDIO
    TITLE "9:cjc060_1480"
    INDEX 01 01:46:29
  TRACK 42 AUDIO
    TITLE "10:cjc060_1481"
    INDEX 01 01:47:60
  TRACK 43 AUDIO
    TITLE "9:cjc060_1482"
    INDEX 01 01:50:68
  TRACK 44 AUDIO
    TITLE "10:cjc060_1483"
    INDEX 01 01:52:18
  TRACK 45 AUDIO
    TITLE "9:cjc060_1484"
    INDEX 01 01:55:63
  TRACK 46 AUDIO
    TITLE "10:cjc060_1485"
    INDEX 01 01:57:13
  TRACK 47 AUDIO
    TITLE "9:cjc060_1486"
    INDEX 01 02:00:72
  TRACK 48 AUDIO
    TITLE "10:cjc060_1487"
    INDEX 01 02:02:26
  TRACK 49 AUDIO
    TITLE "9:cjc060_1488"
    INDEX 01 02:06:48
  TRACK 50 AUDIO
    TITLE "10:cjc060_1489"
    INDEX 01 02:08:01
  TRACK 51 AUDIO
    TITLE "9:cjc060_1490"
    INDEX 01 02:11:59
  TRACK 52 AUDIO
    TITLE "10:cjc060_1491"
    INDEX 01 02:13:24
  TRACK 53 AUDIO
    TITLE "9:cjc060_1492"
    INDEX 01 02:17:69
  TRACK 54 AUDIO
    TITLE "10:cjc060_1493"
    INDEX 01 02:19:19
  TRACK 55 AUDIO
    TITLE "9:cjc060_1494"
    INDEX 01 02:23:05
  TRACK 56 AUDIO
    TITLE "10:cjc060_1495"
    INDEX 01 02:24:24
  TRACK 57 AUDIO
    TITLE "9:cjc060_1496"
    INDEX 01 02:27:71
  TRACK 58 AUDIO
    TITLE "10:cjc060_1497"
    INDEX 01 02:29:23
  TRACK 59 AUDIO
    TITLE "9:cjc060_1498"
    INDEX 01 02:33:43
  TRACK 60 AUDIO
    TITLE "10:cjc060_1499"
    INDEX 01 02:34:58
  TRACK 61 AUDIO
    TITLE "0:"
    INDEX 01 02:37:74
